<svg width="80" height="51" viewBox="0 0 80 51" fill="none" xmlns="http://www.w3.org/2000/svg">
<path d="M0.104004 8.29736C0.104004 8.29736 9.3804 10.1212 15.4107 18.1627C17.4922 20.9403 17.6027 29.35 15.4107 32.0439C8.50697 40.5271 0.104004 41.5512 0.104004 41.5512L5.27094 25.0598L0.104004 8.29736Z" fill="white"/>
<path d="M0.00334654 41.6282L0.0368111 41.5244L5.19706 25.0531L0 8.20703L0.11378 8.23046C0.207481 8.24719 9.48722 10.1513 15.4674 18.1226C17.6024 20.9738 17.6024 29.4571 15.464 32.084C8.62049 40.4904 0.197441 41.6014 0.110433 41.6148L0.00334654 41.6315V41.6282ZM0.200788 8.38774L5.34095 25.0565L5.33426 25.0765L0.200788 41.4642C1.19803 41.3102 8.96852 39.8512 15.3569 32.0004C17.4685 29.4069 17.4685 21.0307 15.3569 18.2096C9.76498 10.7503 1.27835 8.62869 0.200788 8.38774Z" fill="white"/>
<path d="M14.6811 25.0967C17.6996 25.0833 20.7214 25.0733 23.7366 25.07C23.7433 22.289 23.8571 19.5014 24.088 16.7239C21.1464 17.0485 18.2083 17.4802 15.2634 18.019C14.8819 20.3782 14.6878 22.7375 14.6777 25.0967H14.6811Z" fill="white"/>
<path d="M14.6143 25.167V25.0967C14.621 22.7408 14.8217 20.3548 15.1999 18.0089L15.2099 17.9587L15.2568 17.952C18.1983 17.4099 21.1666 16.9715 24.0847 16.6536L24.1684 16.6436L24.1617 16.7239C23.9308 19.4914 23.817 22.2924 23.8103 25.0666V25.1335H23.7401C20.7216 25.1402 17.703 25.1503 14.6845 25.1603H14.6176L14.6143 25.167ZM15.3271 18.0758C14.9556 20.3782 14.7615 22.7174 14.7481 25.0264C17.7231 25.0164 20.6981 25.003 23.6698 24.9963C23.6765 22.2723 23.7936 19.5148 24.0145 16.8008C21.1399 17.1154 18.2184 17.5471 15.3271 18.0725V18.0758Z" fill="white"/>
<path d="M15.2163 32.1749C18.1645 32.6902 21.1127 33.1052 24.0576 33.413C23.8401 30.6321 23.733 27.8512 23.7364 25.0703C20.7179 25.0737 17.6994 25.0837 14.6808 25.0971C14.6742 27.453 14.8515 29.8156 15.2163 32.1749Z" fill="white"/>
<path d="M24.1349 33.4897L24.0545 33.4796C21.1264 33.1717 18.1514 32.7568 15.2031 32.2414L15.1563 32.2347L15.1496 32.1845C14.7848 29.832 14.6041 27.4459 14.6142 25.0967V25.0265H14.6811C17.6996 25.0164 20.7181 25.003 23.7366 24.9963H23.8069V25.0666C23.8002 27.8274 23.9106 30.6351 24.1282 33.4027L24.1349 33.4863V33.4897ZM15.2801 32.1176C18.1781 32.6196 21.1063 33.0278 23.9876 33.3357C23.7734 30.6117 23.6697 27.8542 23.6697 25.1369C20.698 25.1436 17.723 25.1536 14.748 25.1637C14.7447 27.466 14.9254 29.8052 15.2768 32.1143L15.2801 32.1176Z" fill="white"/>
<path d="M23.8237 21.0643C26.8222 20.907 29.8239 20.7999 32.8257 20.7464C32.8625 17.7513 32.9395 14.7629 33.0499 11.7678C30.2021 11.9251 27.3509 12.243 24.4997 12.7216C24.1617 15.5025 23.9409 18.2834 23.8271 21.0643H23.8237Z" fill="white"/>
<path d="M23.7534 21.1344V21.0607C23.8672 18.2899 24.0948 15.4788 24.4294 12.7147L24.4361 12.6611L24.4863 12.6544C27.3241 12.1792 30.2054 11.858 33.0465 11.7007H33.1202V11.771C33.0097 14.7292 32.9361 17.7477 32.896 20.7462V20.8098H32.829C29.8339 20.8666 26.8054 20.9737 23.8304 21.131H23.7568L23.7534 21.1344ZM24.5599 12.7782C24.232 15.5056 24.0077 18.2664 23.8973 20.9938C26.8255 20.8399 29.8072 20.7328 32.7554 20.6792C32.7956 17.7277 32.8692 14.756 32.9796 11.8412C30.1853 12.0019 27.3509 12.3164 24.5599 12.7816V12.7782Z" fill="white"/>
<path d="M23.8166 29.2428C26.8184 29.3934 29.8201 29.4938 32.8219 29.544C32.7851 26.5523 32.7885 23.5572 32.8253 20.5654C29.8268 20.6223 26.8284 20.7294 23.83 20.8967C23.7129 23.6776 23.7062 26.4619 23.8132 29.2428H23.8166Z" fill="white"/>
<path d="M32.8923 29.6109H32.8187C29.8303 29.5607 26.8017 29.4603 23.8134 29.3064H23.7498V29.2428C23.6427 26.4853 23.6494 23.6776 23.7665 20.89V20.8298H23.8301C26.7984 20.6624 29.8269 20.552 32.8321 20.4951H32.9023V20.5654C32.8655 23.5739 32.8655 26.5924 32.8957 29.544V29.6142L32.8923 29.6109ZM23.8803 29.1758C26.8252 29.3197 29.8102 29.4235 32.7518 29.4737C32.7183 26.5656 32.7216 23.5939 32.7551 20.6323C29.7968 20.6892 26.8185 20.7963 23.897 20.9569C23.7832 23.6977 23.7799 26.4619 23.8803 29.1725V29.1758Z" fill="white"/>
<path d="M24.466 37.5355C27.3239 38.0006 30.1818 38.3118 33.0397 38.4658C32.9292 35.474 32.859 32.479 32.8222 29.4872C29.8204 29.437 26.8153 29.34 23.8135 29.186C23.9172 31.9703 24.1347 34.7479 24.466 37.5321V37.5355Z" fill="white"/>
<path d="M33.11 38.5394H33.033C30.1986 38.3821 27.3139 38.0676 24.456 37.6024L24.4058 37.5924L24.3991 37.5422C24.0712 34.7747 23.8503 31.967 23.7466 29.1928V29.1191L23.8169 29.1225C26.7919 29.2697 29.8238 29.3735 32.8222 29.4237H32.8858V29.4939C32.9192 32.4355 32.9962 35.454 33.1033 38.4692V38.5428L33.11 38.5394ZM24.5297 37.4719C27.3407 37.9304 30.1785 38.2416 32.9694 38.3922C32.859 35.4239 32.7887 32.4522 32.7553 29.5542C29.8003 29.504 26.8186 29.4036 23.8871 29.2597C23.9909 31.9871 24.2084 34.7512 24.5297 37.4686V37.4719Z" fill="white"/>
<path d="M32.9058 16.3725C35.8506 16.2621 38.7989 16.2621 41.7438 16.3725C41.6701 13.3774 41.5597 10.3857 41.4091 7.39396C38.6885 7.18313 35.9644 7.18313 33.2404 7.39396C33.0932 10.389 32.9794 13.3774 32.9091 16.3725H32.9058Z" fill="white"/>
<path d="M41.8174 16.4427H41.7438C40.2781 16.3891 38.7956 16.359 37.3298 16.359C35.8641 16.359 34.3782 16.3891 32.9125 16.4393H32.8389V16.3657C32.9125 13.3673 33.0229 10.3454 33.1702 7.38713V7.32689L33.2337 7.32354C34.5924 7.2198 35.9678 7.16626 37.3265 7.16626C38.6851 7.16626 40.0572 7.2198 41.4125 7.32354H41.4727V7.38713C41.6233 10.3454 41.7338 13.3639 41.8074 16.3657V16.4393L41.8174 16.4427ZM33.3074 7.4574C33.1635 10.3688 33.0497 13.3405 32.9794 16.2988C34.4217 16.2486 35.8842 16.2218 37.3298 16.2218C38.7755 16.2218 40.2345 16.2452 41.6769 16.2988C41.6033 13.3405 41.4928 10.3688 41.3456 7.4574C40.0137 7.35366 38.6617 7.30347 37.3298 7.30347C35.9979 7.30347 34.6426 7.35366 33.3107 7.4574H33.3074Z" fill="white"/>
<path d="M32.7954 25.3171H41.8543C41.8543 22.3254 41.8208 19.3303 41.7439 16.3385C38.799 16.2348 35.8507 16.2348 32.9092 16.3385C32.8356 19.3303 32.7954 22.3254 32.7954 25.3171Z" fill="white"/>
<path d="M41.9247 25.3877H32.7319V25.314C32.7319 22.3558 32.7687 19.3339 32.8424 16.3355V16.2685H32.9093C34.375 16.2117 35.8609 16.1882 37.3266 16.1882C38.7924 16.1882 40.2782 16.2117 41.7473 16.2652H41.8109V16.3355C41.8845 19.2569 41.9213 22.2788 41.9213 25.314V25.3877H41.9247ZM32.8658 25.2505H41.7875C41.7875 22.2554 41.7507 19.2837 41.6837 16.4024C40.238 16.3522 38.7756 16.3254 37.33 16.3254C35.8843 16.3254 34.4252 16.3522 32.9796 16.4024C32.906 19.3573 32.8691 22.3357 32.8691 25.2505H32.8658Z" fill="white"/>
<path d="M32.9125 34.3432C35.8541 34.447 38.799 34.447 41.7405 34.3432C41.8175 31.3481 41.8543 28.3564 41.8543 25.3613C38.8358 25.3613 35.8139 25.3613 32.7954 25.3613C32.7954 28.3564 32.8356 31.3481 32.9092 34.3432H32.9125Z" fill="white"/>
<path d="M37.3266 34.4902C35.8609 34.4902 34.375 34.4634 32.9093 34.4099H32.8457V34.343C32.7687 31.3211 32.7319 28.2959 32.7319 25.361V25.2908H41.9247V25.361C41.9247 28.3193 41.8845 31.3412 41.8075 34.343V34.4065H41.744C40.2782 34.4634 38.7924 34.4902 37.3266 34.4902ZM32.9796 34.276C34.4219 34.3262 35.8843 34.353 37.3266 34.353C38.769 34.353 40.2314 34.3296 41.6737 34.276C41.7473 31.3177 41.7875 28.3427 41.7875 25.4313H32.8658C32.8658 28.3227 32.906 31.2977 32.9796 34.276Z" fill="white"/>
<path d="M33.2505 43.3214C35.9678 43.5323 38.6852 43.5323 41.3992 43.3214C41.5497 40.3263 41.6602 37.3313 41.7371 34.3362C38.7956 34.4466 35.8507 34.4466 32.9092 34.3362C32.9861 37.3279 33.0999 40.323 33.2505 43.3214Z" fill="white"/>
<path d="M37.3265 43.549C35.9712 43.549 34.5992 43.4988 33.2439 43.3884H33.1836L33.1803 43.3282C33.0297 40.3498 32.9159 37.3313 32.8423 34.3429V34.2693H32.9126C34.3783 34.3228 35.8608 34.3496 37.3265 34.3496C38.7923 34.3496 40.2748 34.3228 41.7372 34.2693H41.8108L41.8075 34.3396C41.7338 37.3581 41.6201 40.3766 41.4728 43.3248V43.3817L41.4092 43.3851C40.0573 43.4955 38.6819 43.5457 37.3299 43.5457L37.3265 43.549ZM33.3175 43.2579C34.6494 43.3583 35.998 43.4118 37.3299 43.4118C38.6618 43.4118 40.0071 43.3616 41.339 43.2579C41.4829 40.3532 41.5966 37.3782 41.6703 34.4098C40.2313 34.4634 38.7655 34.4902 37.3265 34.4902C35.8876 34.4902 34.4218 34.4634 32.9828 34.4098C33.0565 37.3514 33.1702 40.3264 33.3175 43.2579Z" fill="white"/>
<path d="M41.6135 11.9585C44.468 12.1158 47.3225 12.4304 50.1771 12.8989C49.8424 10.1146 49.3973 7.33373 48.8418 4.55282C46.2784 3.7664 43.7251 3.24435 41.165 2.97998C41.3491 5.97172 41.4963 8.96346 41.6101 11.9585H41.6135Z" fill="white"/>
<path d="M50.2539 12.979L50.1669 12.9656C47.3191 12.4971 44.4411 12.1826 41.6067 12.0253H41.5431V11.9617C41.4326 8.99005 41.2821 5.97154 41.098 2.98649L41.0913 2.90283L41.1716 2.91287C43.7183 3.1739 46.3051 3.70264 48.8618 4.48571L48.8986 4.49909L48.9053 4.5426C49.4608 7.32686 49.9126 10.1345 50.2405 12.8887L50.2506 12.979H50.2539ZM41.6736 11.8881C44.4645 12.042 47.2957 12.3532 50.0966 12.8117C49.772 10.1044 49.327 7.34359 48.7848 4.60284C46.275 3.8365 43.7384 3.31445 41.2386 3.05342C41.4226 5.98827 41.5699 8.95993 41.6769 11.8881H41.6736Z" fill="white"/>
<path d="M41.8275 20.927C44.8292 20.9772 47.8344 21.0776 50.8361 21.2316C50.7257 18.4507 50.5082 15.6731 50.1769 12.8888C47.319 12.417 44.4645 12.1058 41.6133 11.9485C41.7204 14.9402 41.794 17.9353 41.8308 20.927H41.8275Z" fill="white"/>
<path d="M50.9063 21.3052H50.8293C47.8443 21.1479 44.8157 21.0441 41.8273 20.9939H41.7604V20.927C41.7236 17.9788 41.65 14.9569 41.5396 11.9518V11.8782L41.6132 11.8849C44.451 12.0388 47.3356 12.3534 50.1868 12.8219L50.237 12.8286L50.2437 12.8788C50.575 15.653 50.7959 18.464 50.903 21.2282V21.3052H50.9063ZM41.8976 20.8567C44.8425 20.9069 47.8242 21.0107 50.7657 21.1613C50.6553 18.4339 50.4378 15.6764 50.1132 12.949C47.3055 12.4872 44.4744 12.176 41.6834 12.0187C41.7905 14.9803 41.8608 17.952 41.8976 20.8567Z" fill="white"/>
<path d="M41.8276 29.9256C44.8261 29.872 47.8245 29.7616 50.8263 29.5976C50.9434 26.8167 50.9501 24.0325 50.8397 21.2515C47.8379 21.0976 44.8361 20.9939 41.831 20.947C41.8678 23.9421 41.8678 26.9338 41.831 29.9289L41.8276 29.9256Z" fill="white"/>
<path d="M41.7573 29.9926V29.9223C41.7941 26.9506 41.7974 23.9321 41.7606 20.9437V20.8701H41.8342C44.8092 20.9203 47.8411 21.0241 50.8429 21.1746H50.9031L50.9065 21.2416C51.0136 24.0124 51.0069 26.8268 50.8898 29.5943V29.6579L50.8262 29.6613C47.8311 29.8253 44.8025 29.9357 41.8242 29.9892H41.7539L41.7573 29.9926ZM41.8978 21.014C41.9313 23.9556 41.9313 26.9306 41.8945 29.8554C44.826 29.8052 47.8043 29.6914 50.7592 29.5308C50.873 26.8034 50.8764 24.0426 50.776 21.3152C47.8177 21.1713 44.8327 21.0676 41.9012 21.0174L41.8978 21.014Z" fill="white"/>
<path d="M41.5967 38.9175C44.4445 38.7569 47.289 38.4356 50.1369 37.9504C50.4782 35.1695 50.7091 32.3886 50.8229 29.6077C47.8244 29.7716 44.826 29.8821 41.8276 29.9356C41.7874 32.9274 41.7105 35.9224 41.5967 38.9142V38.9175Z" fill="white"/>
<path d="M41.5229 38.9912V38.9142C41.6367 35.9861 41.7137 32.9676 41.7572 29.939V29.8721H41.8241C44.7991 29.8152 47.8243 29.7047 50.8194 29.5408H50.893L50.8897 29.611C50.7726 32.3953 50.5417 35.203 50.2037 37.9571L50.197 38.0073L50.1468 38.014C47.309 38.4959 44.4344 38.8205 41.5999 38.9845H41.5263L41.5229 38.9912ZM41.8944 30.0093C41.8542 32.991 41.7773 35.9593 41.6668 38.8473C44.4511 38.6833 47.2822 38.3687 50.0765 37.8935C50.4078 35.1829 50.6354 32.4221 50.7525 29.6813C47.8043 29.8453 44.8226 29.9524 41.8944 30.0093Z" fill="white"/>
<path d="M41.1484 47.8089C43.6951 47.5446 46.2417 47.0125 48.7884 46.2194C49.354 43.4385 49.8057 40.6509 50.1437 37.8733C47.2959 38.3552 44.448 38.6731 41.5969 38.8337C41.4864 41.8255 41.3358 44.8172 41.1484 47.8089Z" fill="white"/>
<path d="M41.0747 47.8861L41.0814 47.8058C41.2655 44.8107 41.4194 41.7922 41.5298 38.8305V38.767H41.5934C44.4479 38.603 47.3226 38.2817 50.1336 37.8065L50.2239 37.7898L50.2139 37.8835C49.8792 40.6477 49.4241 43.4554 48.8619 46.2296L48.8552 46.2697L48.8184 46.2798C46.2751 47.0762 43.7017 47.6117 41.1617 47.8727L41.0814 47.8827L41.0747 47.8861ZM41.6637 38.8975C41.5532 41.8122 41.406 44.7839 41.2186 47.7321C43.7084 47.4678 46.2383 46.9357 48.7314 46.1593C49.2836 43.4286 49.732 40.6678 50.0633 37.9538C47.2958 38.4189 44.4714 38.7335 41.6637 38.8975Z" fill="white"/>
<path d="M49.6045 8.80269C52.3352 9.42848 55.0593 10.2584 57.79 11.3025C57.0504 8.94324 56.1268 6.58399 55.0158 4.22473C52.6598 2.65524 50.3006 1.40032 47.938 0.459961C48.6039 3.24087 49.1628 6.02178 49.6045 8.80269Z" fill="white"/>
<path d="M57.9004 11.4196L57.7666 11.3694C55.0559 10.332 52.3051 9.49207 49.5912 8.86963L49.5477 8.86294L49.541 8.81609C49.0992 6.04187 48.5404 3.23754 47.8778 0.473357L47.8477 0.346191L47.9715 0.396388C50.3274 1.34009 52.7134 2.60505 55.0593 4.1712L55.076 4.18124L55.0827 4.19797C56.1904 6.55053 57.1241 8.93321 57.8603 11.2824L57.9038 11.4196H57.9004ZM49.6681 8.74916C52.3286 9.36156 55.0225 10.1814 57.6863 11.1887C56.9601 8.89975 56.0465 6.57061 54.9689 4.27494C52.6733 2.74895 50.3441 1.50741 48.0418 0.577097C48.6876 3.28439 49.2331 6.03518 49.6681 8.75251V8.74916Z" fill="white"/>
<path d="M50.595 17.1488C53.5433 17.46 56.4915 17.8683 59.4431 18.3803C59.0783 16.0211 58.5295 13.6618 57.7899 11.3025C55.0592 10.2618 52.3352 9.42852 49.6045 8.80273C50.0462 11.587 50.3775 14.3679 50.595 17.1488Z" fill="white"/>
<path d="M59.527 18.4639L59.4333 18.4472C56.4951 17.9318 53.5201 17.5236 50.5919 17.2157L50.535 17.209V17.1488C50.3142 14.3946 49.9829 11.5903 49.5411 8.80938L49.5244 8.70898L49.6215 8.73241C52.3388 9.3582 55.0963 10.1982 57.8169 11.2356L57.8471 11.249L57.8571 11.2791C58.59 13.6283 59.1455 16.0143 59.5136 18.3669L59.527 18.4639ZM50.6622 17.0852C53.5435 17.3864 56.4717 17.7946 59.363 18.2933C59.0016 15.9875 58.4561 13.6517 57.7366 11.3527C55.0628 10.3354 52.3622 9.50544 49.6884 8.89304C50.1201 11.6238 50.4447 14.3812 50.6589 17.0852H50.6622Z" fill="white"/>
<path d="M50.9167 25.3142C53.9353 25.3108 56.9571 25.3108 59.9756 25.3041C59.9756 22.9449 59.7916 20.589 59.4201 18.2297C56.4752 17.7043 53.527 17.286 50.5854 16.9714C50.8097 19.7523 50.9167 22.5333 50.9167 25.3142Z" fill="white"/>
<path d="M50.8463 25.3811V25.3108C50.8463 22.5332 50.7359 19.7256 50.515 16.9748L50.5083 16.8911L50.592 16.9012C53.5201 17.2157 56.4951 17.6407 59.4333 18.1594L59.4802 18.1661L59.4869 18.2163C59.855 20.5689 60.0457 22.9549 60.0424 25.3041V25.3744H59.9721C57.7099 25.3777 55.4443 25.3811 53.1821 25.3811H50.8429H50.8463ZM50.6589 17.0451C50.8731 19.7557 50.9835 22.5165 50.9835 25.2439H53.1855C55.4276 25.2405 57.6664 25.2372 59.9052 25.2338C59.9052 22.9281 59.7178 20.5923 59.3597 18.2866C56.465 17.7712 53.5402 17.3563 50.6622 17.0451H50.6589Z" fill="white"/>
<path d="M50.5718 33.6468C53.5167 33.3289 56.4582 32.9039 59.4031 32.3718C59.7812 30.0159 59.9686 27.6566 59.972 25.2974C56.9535 25.3007 53.9316 25.3041 50.9131 25.3041C50.9131 28.0883 50.796 30.8659 50.5718 33.6468Z" fill="white"/>
<path d="M50.498 33.7236L50.5047 33.64C50.729 30.8624 50.8427 28.0547 50.8461 25.3006V25.2303H50.9732C53.9717 25.227 56.9735 25.227 59.9752 25.2236H60.0455V25.2939C60.0422 27.6532 59.8481 30.0358 59.4766 32.3817L59.4666 32.4286L59.4197 32.4386C56.4849 32.9673 53.5132 33.3957 50.5817 33.7136L50.5014 33.7236H50.498ZM50.9833 25.3709C50.9799 28.0815 50.8662 30.8357 50.6453 33.5697C53.5299 33.2551 56.4548 32.8301 59.3427 32.3114C59.7075 30.0124 59.8949 27.6766 59.9016 25.3608C56.9266 25.3642 53.9549 25.3675 50.9799 25.3709H50.9833Z" fill="white"/>
<path d="M49.5977 41.7586C52.3217 41.1328 55.049 40.2962 57.7764 39.2521C58.516 36.8962 59.0681 34.5336 59.4363 32.1743C56.488 32.6897 53.5398 33.1046 50.5949 33.4125C50.374 36.1934 50.0427 38.9777 49.5977 41.7586Z" fill="white"/>
<path d="M49.5141 41.849L49.5308 41.7486C49.9692 38.9978 50.3039 36.1935 50.5247 33.4059V33.349L50.585 33.3423C53.5031 33.0378 56.4781 32.6228 59.423 32.1041L59.5167 32.0874L59.4999 32.1845C59.1352 34.537 58.5763 36.9197 57.8401 39.2723L57.83 39.3024L57.7966 39.3158C55.0826 40.3565 52.3251 41.1998 49.6111 41.8256L49.5107 41.8457L49.5141 41.849ZM50.6552 33.4728C50.4344 36.2102 50.1098 38.9677 49.6814 41.6683C52.3485 41.0459 55.0525 40.216 57.723 39.1986C58.4425 36.8963 58.9913 34.5604 59.3527 32.2581C56.4547 32.7634 53.5298 33.1717 50.6586 33.4728H50.6552Z" fill="white"/>
<path d="M47.9409 50.0515C50.3035 49.1078 52.6594 47.8562 55.0187 46.2834C56.1297 43.9242 57.0533 41.5682 57.7929 39.209C55.0622 40.2497 52.3382 41.083 49.6075 41.7088C49.1657 44.493 48.6102 47.2706 47.9409 50.0549V50.0515Z" fill="white"/>
<path d="M47.8442 50.1617L47.8743 50.0311C48.5369 47.2703 49.0957 44.4626 49.5375 41.6951L49.5442 41.6483L49.5877 41.6382C52.295 41.0158 55.0491 40.1758 57.7631 39.1418L57.8969 39.0916L57.8534 39.2288C57.1206 41.578 56.1869 43.9607 55.0759 46.3132L55.0692 46.3333L55.0524 46.3433C52.6999 47.9095 50.3139 49.1778 47.9646 50.1181L47.8408 50.1683L47.8442 50.1617ZM49.668 41.762C49.2329 44.4794 48.6875 47.2235 48.0416 49.9341C50.3373 49.0071 52.6664 47.7656 54.9688 46.2363C56.0497 43.9372 56.9633 41.6114 57.6861 39.3191C55.0223 40.3297 52.3251 41.1496 49.668 41.762Z" fill="white"/>
<path d="M55.0195 4.22803C55.0195 4.22803 58.8512 11.9483 58.8512 25.2974C58.8512 38.6464 55.0195 46.283 55.0195 46.283C72.4211 35.9525 79.3483 25.4413 79.3483 25.4413C68.6028 12.3834 55.0195 4.22803 55.0195 4.22803ZM67.89 22.6035H63.7438V18.4538H67.89V22.6035Z" fill="white"/>
<path d="M54.8554 46.4604L54.9591 46.2529C54.9959 46.1759 58.7808 38.295 58.7808 25.294C58.7808 12.293 54.9959 4.33509 54.9591 4.25477L54.8521 4.04395L55.0562 4.16776C55.1934 4.24808 68.7733 12.477 79.4017 25.3977L79.4352 25.4345L79.405 25.478C79.3348 25.5818 72.267 36.1164 55.0562 46.3399L54.8587 46.457L54.8554 46.4604ZM55.1767 4.40536C55.7723 5.72722 58.918 13.2768 58.918 25.2973C58.918 37.3178 55.7589 44.8005 55.1733 46.1123C71.6747 36.267 78.7592 26.1841 79.2612 25.4479C69.3456 13.414 56.8767 5.46285 55.1767 4.40536ZM67.9601 22.6704H63.6767V18.3835H67.9601V22.6704ZM63.8139 22.5332H67.8263V18.5207H63.8139V22.5332Z" fill="white"/>
</svg>
